<svg width="29" height="29" viewBox="0 0 29 29" fill="none" xmlns="http://www.w3.org/2000/svg">
<g clip-path="url(#clip0_1716_796)">
<path d="M27.5576 0H1.14824C0.513118 0 0 0.513118 0 1.14824V27.5576C0 28.1928 0.513118 28.7059 1.14824 28.7059H27.5576C28.1928 28.7059 28.7059 28.1928 28.7059 27.5576V1.14824C28.7059 0.513118 28.1928 0 27.5576 0ZM24.2421 8.37853H21.9492C20.1515 8.37853 19.8035 9.23253 19.8035 10.4884V13.2549H24.095L23.5352 17.5859H19.8035V28.7059H15.3289V17.5895H11.5864V13.2549H15.3289V10.0614C15.3289 6.35476 17.5931 4.33459 20.9015 4.33459C22.4875 4.33459 23.8474 4.453 24.2457 4.50682V8.37853H24.2421Z" fill="white"/>
</g>
<defs>
<clipPath id="clip0_1716_796">
<rect width="28.7059" height="28.7059" fill="white"/>
</clipPath>
</defs>
</svg>
