<svg width="30" height="29" viewBox="0 0 30 29" fill="none" xmlns="http://www.w3.org/2000/svg">
<g clip-path="url(#clip0_1716_798)">
<path d="M15.0037 6.99354C10.9311 6.99354 7.64425 10.2804 7.64425 14.353C7.64425 18.4257 10.9311 21.7125 15.0037 21.7125C19.0764 21.7125 22.3632 18.4257 22.3632 14.353C22.3632 10.2804 19.0764 6.99354 15.0037 6.99354ZM15.0037 19.1361C12.37 19.1361 10.2206 16.9868 10.2206 14.353C10.2206 11.7192 12.37 9.56989 15.0037 9.56989C17.6375 9.56989 19.7868 11.7192 19.7868 14.353C19.7868 16.9868 17.6375 19.1361 15.0037 19.1361ZM22.6646 4.97695C21.7137 4.97695 20.9458 5.74483 20.9458 6.69571C20.9458 7.6466 21.7137 8.41448 22.6646 8.41448C23.6155 8.41448 24.3834 7.65019 24.3834 6.69571C24.3836 6.46992 24.3394 6.24629 24.2531 6.03764C24.1668 5.82898 24.0402 5.63939 23.8806 5.47973C23.7209 5.32007 23.5313 5.19348 23.3227 5.10721C23.114 5.02093 22.8904 4.97667 22.6646 4.97695ZM29.3495 14.353C29.3495 12.3723 29.3674 10.4095 29.2562 8.43242C29.1449 6.13595 28.6211 4.09783 26.9418 2.41854C25.2589 0.735656 23.2244 0.215362 20.9279 0.104127C18.9472 -0.0071083 16.9844 0.0108329 15.0073 0.0108329C13.0266 0.0108329 11.0638 -0.0071083 9.08672 0.104127C6.79025 0.215362 4.75213 0.739244 3.07284 2.41854C1.38995 4.10142 0.869659 6.13595 0.758424 8.43242C0.647189 10.4131 0.66513 12.3759 0.66513 14.353C0.66513 16.3301 0.647189 18.2965 0.758424 20.2736C0.869659 22.5701 1.39354 24.6082 3.07284 26.2875C4.75572 27.9704 6.79025 28.4907 9.08672 28.6019C11.0674 28.7131 13.0302 28.6952 15.0073 28.6952C16.988 28.6952 18.9508 28.7131 20.9279 28.6019C23.2244 28.4907 25.2625 27.9668 26.9418 26.2875C28.6247 24.6046 29.1449 22.5701 29.2562 20.2736C29.371 18.2965 29.3495 16.3337 29.3495 14.353ZM26.1918 22.8141C25.9299 23.4671 25.6141 23.9551 25.1082 24.4575C24.6022 24.9634 24.1178 25.2792 23.4648 25.5411C21.5774 26.2911 17.0957 26.1224 15.0037 26.1224C12.9118 26.1224 8.42648 26.2911 6.53907 25.5447C5.88601 25.2828 5.39801 24.967 4.89566 24.4611C4.38972 23.9551 4.07395 23.4707 3.81201 22.8177C3.06566 20.9267 3.23431 16.4449 3.23431 14.353C3.23431 12.2611 3.06566 7.77577 3.81201 5.88836C4.07395 5.2353 4.38972 4.7473 4.89566 4.24495C5.4016 3.7426 5.88601 3.42324 6.53907 3.1613C8.42648 2.41495 12.9118 2.5836 15.0037 2.5836C17.0957 2.5836 21.581 2.41495 23.4684 3.1613C24.1214 3.42324 24.6094 3.73901 25.1118 4.24495C25.6177 4.75089 25.9335 5.2353 26.1954 5.88836C26.9418 7.77577 26.7731 12.2611 26.7731 14.353C26.7731 16.4449 26.9418 20.9267 26.1918 22.8141Z" fill="white"/>
</g>
<defs>
<clipPath id="clip0_1716_798">
<rect width="28.7059" height="28.7059" fill="white" transform="translate(0.648438)"/>
</clipPath>
</defs>
</svg>
